<svg width="21" height="21" viewBox="0 0 21 21" fill="none" xmlns="http://www.w3.org/2000/svg">
<path fill-rule="evenodd" clip-rule="evenodd" d="M10.5 0.703247C5 0.703247 0.5 5.20325 0.5 10.7032C0.5 16.2032 5 20.7032 10.5 20.7032C13.0078 20.7032 15.3008 19.7736 17.0625 18.2345C17.2656 18.1368 17.4336 17.9689 17.5312 17.7657C19.3516 15.9532 20.5 13.4611 20.5 10.7032C20.5 5.20325 16 0.703247 10.5 0.703247ZM11.5312 2.76575C12.8008 2.93372 13.9883 3.41419 15 4.1095C13.7812 5.17981 11.8125 7.38684 11.5625 10.672C11.2227 10.6876 10.8672 10.7032 10.5 10.7032C10.2448 10.7032 9.99794 10.6927 9.75799 10.6825C9.67112 10.6788 9.58514 10.6751 9.5 10.672C9.50391 7.922 10.0352 5.922 10.5625 4.6095C11.0703 3.34778 11.4961 2.80872 11.5312 2.76575ZM8.71875 3.8595C8.875 3.47669 9.03516 3.12512 9.1875 2.82825C7.77734 3.06653 6.46484 3.672 5.40625 4.547C5.60938 5.05481 6.3125 7.01575 6.46875 10.297C6.78516 10.3634 7.14062 10.4337 7.5 10.4845C7.52734 7.56653 8.11328 5.35559 8.71875 3.8595ZM16.5 5.45325C17.332 6.40637 17.9414 7.56653 18.25 8.82825C18.0977 8.96106 17.7383 9.2384 16.7812 9.64075C16.0352 9.95715 14.9609 10.2462 13.5938 10.4532C13.9297 7.77356 15.6445 6.13294 16.5 5.45325ZM4.4375 9.70325C4.32031 8.12122 4.08594 7.03137 3.875 6.26575C3.35938 7.03528 2.97656 7.90637 2.75 8.82825C2.90234 8.96106 3.26172 9.2384 4.21875 9.64075C4.25055 9.65466 4.28942 9.66351 4.32868 9.67246L4.32869 9.67246L4.32871 9.67246C4.36662 9.6811 4.40488 9.68982 4.4375 9.70325ZM2.5 11.047C2.77344 11.1993 3.07812 11.3322 3.4375 11.4845C3.73828 11.6095 4.10156 11.7423 4.46875 11.8595C4.42578 13.1954 4.16797 14.3673 3.90625 15.2032C3.08984 14.0079 2.56641 12.5822 2.5 11.047ZM16.375 16.1095C17.6133 14.7618 18.418 12.9884 18.5 11.047C18.2266 11.1993 17.9219 11.3322 17.5625 11.4845C16.6094 11.8868 15.2812 12.2579 13.625 12.4845C13.9688 14.5509 15.5273 15.6564 16.375 16.1095ZM6.46875 12.3595C6.80859 12.422 7.18359 12.4689 7.5625 12.5157C7.74219 14.6525 8.23047 16.34 8.71875 17.547C8.875 17.9298 9.03516 18.2814 9.1875 18.5782C7.79297 18.3439 6.49219 17.7501 5.4375 16.8907C5.76953 16.0822 6.33594 14.4298 6.46875 12.3595ZM9.8333 12.6827C9.75282 12.6789 9.673 12.6752 9.59375 12.672C9.76953 14.4493 10.168 15.8165 10.5625 16.797C11.0703 18.0587 11.4961 18.5978 11.5312 18.6407C12.707 18.4845 13.8203 18.0665 14.7812 17.4532C13.5664 16.6407 11.9844 15.1329 11.625 12.672C11.2656 12.6876 10.8867 12.7032 10.5 12.7032C10.272 12.7032 10.0503 12.6929 9.8333 12.6827Z" fill="black"/>
</svg>
