<svg width="19" height="19" viewBox="0 0 19 19" fill="none" xmlns="http://www.w3.org/2000/svg">
<path fill-rule="evenodd" clip-rule="evenodd" d="M2.5 0.703247H16.5C17.605 0.703247 18.5 1.59825 18.5 2.70325V16.7032C18.5 17.8082 17.605 18.7032 16.5 18.7032H2.5C1.395 18.7032 0.5 17.8082 0.5 16.7032V2.70325C0.5 1.59825 1.395 0.703247 2.5 0.703247ZM3.977 14.7032H6.5V7.70325H3.977V14.7032ZM5.194 6.42025C4.423 6.42025 3.908 5.90625 3.908 5.22025C3.908 4.53425 4.422 4.02025 5.279 4.02025C6.05 4.02025 6.565 4.53425 6.565 5.22025C6.565 5.90625 6.051 6.42025 5.194 6.42025ZM13.058 14.7032H15.5V10.8772C15.5 8.68025 14.523 7.70325 13.302 7.70325C12.081 7.70325 11.43 8.11025 11.105 8.68025V7.70325H8.582V14.7032H11.105V10.8772C11.105 9.73825 11.919 9.57525 12.163 9.57525C12.407 9.57525 13.058 9.81925 13.058 10.8772V14.7032Z" fill="black"/>
</svg>
