<svg width="19" height="19" viewBox="0 0 19 19" fill="none" xmlns="http://www.w3.org/2000/svg">
<path fill-rule="evenodd" clip-rule="evenodd" d="M0.5 5.70325C0.5 2.94225 2.739 0.703247 5.5 0.703247H13.5C16.261 0.703247 18.5 2.94225 18.5 5.70325V13.7032C18.5 16.4642 16.261 18.7032 13.5 18.7032H5.5C2.739 18.7032 0.5 16.4642 0.5 13.7032V5.70325ZM16.5 3.70325C16.5 3.15125 16.052 2.70325 15.5 2.70325C14.948 2.70325 14.5 3.15125 14.5 3.70325C14.5 4.25525 14.948 4.70325 15.5 4.70325C16.052 4.70325 16.5 4.25525 16.5 3.70325ZM9.5 4.70325C12.261 4.70325 14.5 6.94225 14.5 9.70325C14.5 12.4642 12.261 14.7032 9.5 14.7032C6.739 14.7032 4.5 12.4642 4.5 9.70325C4.5 6.94225 6.739 4.70325 9.5 4.70325ZM6.5 9.70325C6.5 8.04639 7.84315 6.70325 9.5 6.70325C11.1569 6.70325 12.5 8.04639 12.5 9.70325C12.5 11.3601 11.1569 12.7032 9.5 12.7032C7.84315 12.7032 6.5 11.3601 6.5 9.70325Z" fill="black"/>
</svg>
