<svg width="73" height="21" viewBox="0 0 73 21" fill="none" xmlns="http://www.w3.org/2000/svg">
<path d="M0.190927 19.7439V0.727114H4.21268V16.4146H11.9366V19.7439H0.190927ZM31.9894 10.2089C31.9894 11.6826 31.803 13.0232 31.4301 14.2306C31.075 15.4203 30.5245 16.4501 29.7788 17.3202C29.0508 18.1902 28.1097 18.8561 26.9555 19.3178C25.8192 19.7794 24.4786 20.0102 22.9338 20.0102C21.389 20.0102 20.0395 19.7794 18.8854 19.3178C17.749 18.8383 16.8079 18.1725 16.0622 17.3202C15.3342 16.4501 14.7837 15.4114 14.4109 14.204C14.0557 12.9966 13.8782 11.656 13.8782 10.1822C13.8782 8.21131 14.1978 6.49785 14.837 5.04185C15.494 3.58585 16.4883 2.45833 17.82 1.65931C19.1695 0.842529 20.883 0.434139 22.9604 0.434139C25.0201 0.434139 26.7158 0.842529 28.0475 1.65931C29.3792 2.45833 30.3647 3.59472 31.0039 5.06848C31.6609 6.52448 31.9894 8.23794 31.9894 10.2089ZM18.113 10.2089C18.113 11.5406 18.2817 12.6858 18.6191 13.6447C18.9564 14.6035 19.4802 15.3404 20.1905 15.8553C20.9007 16.3702 21.8152 16.6277 22.9338 16.6277C24.0879 16.6277 25.0112 16.3702 25.7037 15.8553C26.414 15.3404 26.9289 14.6035 27.2485 13.6447C27.5859 12.6858 27.7546 11.5406 27.7546 10.2089C27.7546 8.20243 27.3817 6.63102 26.6359 5.49463C25.8902 4.35824 24.665 3.79004 22.9604 3.79004C21.824 3.79004 20.9007 4.0475 20.1905 4.56243C19.4802 5.07736 18.9564 5.81424 18.6191 6.77307C18.2817 7.7319 18.113 8.87716 18.113 10.2089ZM43.1464 9.0636H50.6839V18.9182C49.6895 19.2556 48.6508 19.5219 47.5677 19.7173C46.5023 19.9126 45.286 20.0102 43.9188 20.0102C42.0366 20.0102 40.4297 19.6374 39.098 18.8916C37.7841 18.1458 36.7808 17.045 36.0883 15.589C35.4136 14.133 35.0763 12.3396 35.0763 10.2089C35.0763 8.22019 35.458 6.49785 36.2215 5.04185C37.0028 3.58585 38.1303 2.45833 39.6041 1.65931C41.0778 0.860285 42.8801 0.460773 45.0108 0.460773C46.0229 0.460773 47.0172 0.567309 47.9938 0.780383C48.9704 0.993456 49.8582 1.27755 50.6572 1.63268L49.3255 4.85541C48.7396 4.55355 48.0737 4.30497 47.328 4.10965C46.5822 3.91433 45.8009 3.81667 44.9842 3.81667C43.8123 3.81667 42.7913 4.08302 41.9212 4.6157C41.0689 5.14838 40.4031 5.90302 39.9237 6.8796C39.462 7.83843 39.2312 8.97482 39.2312 10.2888C39.2312 11.5317 39.3999 12.6326 39.7372 13.5914C40.0746 14.5502 40.6073 15.3049 41.3353 15.8553C42.0633 16.388 43.0132 16.6543 44.1851 16.6543C44.5758 16.6543 44.9131 16.6455 45.1972 16.6277C45.4991 16.5922 45.7743 16.5567 46.0229 16.5212C46.2715 16.4679 46.5112 16.4235 46.742 16.388V12.4195H43.1464V9.0636ZM72.4608 10.2089C72.4608 11.6826 72.2744 13.0232 71.9015 14.2306C71.5464 15.4203 70.9959 16.4501 70.2502 17.3202C69.5222 18.1902 68.5811 18.8561 67.427 19.3178C66.2906 19.7794 64.95 20.0102 63.4052 20.0102C61.8604 20.0102 60.511 19.7794 59.3568 19.3178C58.2204 18.8383 57.2794 18.1725 56.5336 17.3202C55.8056 16.4501 55.2552 15.4114 54.8823 14.204C54.5272 12.9966 54.3496 11.656 54.3496 10.1822C54.3496 8.21131 54.6692 6.49785 55.3084 5.04185C55.9654 3.58585 56.9597 2.45833 58.2914 1.65931C59.6409 0.842529 61.3544 0.434139 63.4318 0.434139C65.4915 0.434139 67.1873 0.842529 68.519 1.65931C69.8507 2.45833 70.8361 3.59472 71.4754 5.06848C72.1323 6.52448 72.4608 8.23794 72.4608 10.2089ZM58.5844 10.2089C58.5844 11.5406 58.7531 12.6858 59.0905 13.6447C59.4278 14.6035 59.9516 15.3404 60.6619 15.8553C61.3721 16.3702 62.2866 16.6277 63.4052 16.6277C64.5594 16.6277 65.4827 16.3702 66.1752 15.8553C66.8854 15.3404 67.4003 14.6035 67.7199 13.6447C68.0573 12.6858 68.226 11.5406 68.226 10.2089C68.226 8.20243 67.8531 6.63102 67.1074 5.49463C66.3616 4.35824 65.1364 3.79004 63.4318 3.79004C62.2954 3.79004 61.3721 4.0475 60.6619 4.56243C59.9516 5.07736 59.4278 5.81424 59.0905 6.77307C58.7531 7.7319 58.5844 8.87716 58.5844 10.2089Z" fill="black"/>
</svg>
