<svg width="25" height="25" viewBox="0 0 25 25" fill="none" xmlns="http://www.w3.org/2000/svg">
<path d="M21.5 5.70325C20.798 6.10835 19.3895 6.66044 18.5615 6.81968C18.5372 6.8258 18.5174 6.83368 18.494 6.8398C17.7623 6.13809 16.7597 5.70325 15.65 5.70325C13.4135 5.70325 11.6 7.46626 11.6 9.6405C11.6 9.75512 11.5901 9.96598 11.6 10.078C8.5823 10.078 6.2855 8.54157 4.6385 6.57819C4.4594 7.01567 4.3811 7.70687 4.3811 8.35608C4.3811 9.58188 5.3666 10.7858 6.9011 11.5321C6.6185 11.603 6.3071 11.6538 5.9831 11.6538C5.4602 11.6538 4.9067 11.5199 4.4 11.1139C4.4 11.1288 4.4 11.1428 4.4 11.1585C4.4 12.8717 6.2702 14.038 7.9334 14.3626C7.5959 14.5559 6.9155 14.5752 6.5834 14.5752C6.3494 14.5752 5.5214 14.4711 5.3 14.4308C5.7626 15.8351 7.4312 16.6243 9.0215 16.6523C7.7777 17.6008 6.9146 17.9525 4.3676 17.9525H3.5C5.1092 18.9552 7.1585 19.7032 9.2123 19.7032C15.8993 19.7032 19.7 14.7484 19.7 10.078C19.7 10.0027 19.6982 9.84524 19.6955 9.68687C19.6955 9.67112 19.7 9.65625 19.7 9.6405C19.7 9.61688 19.6928 9.59413 19.6928 9.57051C19.6901 9.45151 19.6874 9.34039 19.6847 9.28265C20.3957 8.78393 21.0122 8.16184 21.5 7.45314C20.8475 7.73487 20.1473 7.92386 19.412 8.0096C20.1626 7.57213 21.2291 6.5292 21.5 5.70325Z" fill="black"/>
</svg>
