<svg width="21" height="17" viewBox="0 0 21 17" fill="none" xmlns="http://www.w3.org/2000/svg">
<path d="M16.66 1.21323C12.5681 0.533254 8.39194 0.533254 4.3 1.21323C1.96 1.70323 0.5 3.21323 0.5 5.18323V12.1832C0.5 14.1832 1.96 15.6732 4.34 16.1832C6.37551 16.5259 8.43585 16.6999 10.5 16.7032C12.5705 16.7028 14.6374 16.5322 16.68 16.1932C19 15.7532 20.5 14.1932 20.5 12.1932V5.19323C20.5 3.20323 19 1.64323 16.66 1.21323ZM13.76 9.15323L8.76 12.1532C8.68179 12.2009 8.59157 12.2252 8.5 12.2232C8.41318 12.2225 8.32768 12.202 8.25 12.1632C8.17137 12.1155 8.1068 12.0478 8.06289 11.967C8.01897 11.8862 7.99727 11.7952 8 11.7032V5.70323C8.00075 5.61467 8.02411 5.52777 8.06786 5.45076C8.11161 5.37376 8.17431 5.30921 8.25 5.26323C8.32843 5.22121 8.41603 5.19923 8.505 5.19923C8.59398 5.19923 8.68157 5.22121 8.76 5.26323L13.76 8.26323C13.8323 8.30931 13.8918 8.37287 13.933 8.44803C13.9742 8.52318 13.9958 8.60751 13.9958 8.69323C13.9958 8.77894 13.9742 8.86327 13.933 8.93843C13.8918 9.01358 13.8323 9.07714 13.76 9.12323V9.15323Z" fill="black"/>
</svg>
